G04 PROTEUS GERBER X2 FILE*
%TF.GenerationSoftware,Labcenter,Proteus,8.6-SP2-Build23525*%
%TF.CreationDate,2018-03-22T21:58:14+00:00*%
%TF.FileFunction,Copper,L2,Bot*%
%TF.FilePolarity,Positive*%
%TF.Part,Single*%
%FSLAX45Y45*%
%MOMM*%
G01*
%TA.AperFunction,Conductor*%
%ADD15C,0.254000*%
%TA.AperFunction,ComponentPad*%
%ADD10C,1.778000*%
%ADD11C,3.048000*%
%TA.AperFunction,ComponentPad*%
%ADD12R,1.270000X1.270000*%
%ADD13C,1.270000*%
%TA.AperFunction,ComponentPad*%
%ADD14C,2.032000*%
%TD.AperFunction*%
D15*
X+1322000Y+274000D02*
X+1429000Y+381000D01*
X+2155000Y+381000D01*
X+2774000Y+1000000D01*
X+1068000Y+274000D02*
X+1238500Y+444500D01*
X+1710500Y+444500D01*
X+2266000Y+1000000D01*
X+814000Y+274000D02*
X+1048000Y+508000D01*
X+1266000Y+508000D01*
X+1758000Y+1000000D01*
X+560000Y+274000D02*
X+921257Y+635257D01*
X+885257Y+635257D01*
X+1250000Y+1000000D01*
X-1016000Y+952500D02*
X-1714500Y+1651000D01*
X-3111500Y+1651000D01*
X-3175000Y+1587500D01*
X-3175000Y+1456500D01*
X-3111500Y+1393000D01*
X-2790000Y+1393000D01*
X-2667000Y+1270000D01*
X-2667000Y+508000D01*
X-2603500Y+444500D01*
X-2603500Y+190500D01*
X-2540000Y+127000D01*
X-1873000Y+127000D01*
X-1726000Y+274000D01*
X-1016000Y+952500D02*
X-317500Y+952500D01*
X-190500Y+825500D01*
X+325500Y+825500D01*
X+500000Y+1000000D01*
X-1016000Y+952500D02*
X-1047500Y+952500D01*
X-1250000Y+750000D01*
X-8000Y+1000000D02*
X-786000Y+1778000D01*
X-3302000Y+1778000D01*
X-3365500Y+1714500D01*
X-3365500Y+952500D01*
X-2857500Y+444500D01*
X-2857500Y+63500D01*
X-2794000Y+0D01*
X-1746000Y+0D01*
X-1472000Y+274000D01*
X-8000Y+1000000D02*
X+262000Y+1270000D01*
X+3432500Y+1270000D01*
X+3496000Y+1206500D01*
X+3496000Y+1250000D01*
X+444000Y-2250000D02*
X+226000Y-2032000D01*
X-127000Y-2032000D01*
X-202000Y-1957000D01*
X-202000Y-1250000D01*
X+952000Y-2250000D02*
X+670500Y-1968500D01*
X+127000Y-1968500D01*
X+52000Y-1893500D01*
X+52000Y-1250000D01*
X+1460000Y-2250000D02*
X+1115000Y-1905000D01*
X+961000Y-1905000D01*
X+306000Y-1250000D01*
X+1968000Y-2250000D02*
X+1968000Y-1841500D01*
X+1460500Y-1334000D01*
X+1460500Y-1206500D01*
X+1397000Y-1143000D01*
X+1016000Y-1143000D01*
X+952500Y-1206500D01*
X+952500Y-1397000D01*
X+889000Y-1460500D01*
X+770500Y-1460500D01*
X+560000Y-1250000D01*
X+2476000Y-2250000D02*
X+2476000Y-1079500D01*
X+2412500Y-1016000D01*
X+889000Y-1016000D01*
X+814000Y-1091000D01*
X+814000Y-1250000D01*
X+2984000Y-2250000D02*
X+2984000Y-2603500D01*
X+2920500Y-2667000D01*
X+1714500Y-2667000D01*
X+1651000Y-2603500D01*
X+1651000Y-2107000D01*
X+1068000Y-1524000D01*
X+1068000Y-1250000D01*
X+3492000Y-2250000D02*
X+3274000Y-2032000D01*
X+2794000Y-2032000D01*
X+2730500Y-2095500D01*
X+2730500Y-2476500D01*
X+2667000Y-2540000D01*
X+1778000Y-2540000D01*
X+1714500Y-2476500D01*
X+1714500Y-2043500D01*
X+1322000Y-1651000D01*
X+1322000Y-1250000D01*
X+4000000Y-2250000D02*
X+3655000Y-1905000D01*
X+2730500Y-1905000D01*
X+2667000Y-1968500D01*
X+2667000Y-2413000D01*
X+2603500Y-2476500D01*
X+2222500Y-2476500D01*
X+2159000Y-2413000D01*
X+2159000Y-1333500D01*
X+2075500Y-1250000D01*
X+1576000Y-1250000D01*
X-2000000Y+750000D02*
X-2234000Y+516000D01*
X-2234000Y+274000D01*
X-2500000Y+750000D02*
X-2500000Y+286000D01*
X-2488000Y+274000D01*
X-3004000Y+1266000D02*
X-3175000Y+1266000D01*
X-3250000Y+1191000D01*
X-3250000Y+1000000D01*
X-2742000Y+492000D01*
X-2742000Y+274000D01*
X-4500000Y-508000D02*
X-4699000Y-707000D01*
X-4699000Y-2476500D01*
X-4635500Y-2540000D01*
X-2095500Y-2540000D01*
X-2032000Y-2476500D01*
X-2032000Y-1397000D01*
X-2095500Y-1333500D01*
X-2095500Y-1206500D01*
X-2159000Y-1143000D01*
X-2635000Y-1143000D01*
X-2742000Y-1250000D01*
X-4500000Y-1016000D02*
X-4500000Y-2413000D01*
X-4436500Y-2476500D01*
X-3111500Y-2476500D01*
X-3048000Y-2413000D01*
X-3048000Y-1968500D01*
X-3365500Y-1651000D01*
X-3365500Y-1206500D01*
X-3302000Y-1143000D01*
X-2921000Y-1143000D01*
X-2857500Y-1206500D01*
X-2857500Y-1333500D01*
X-2794000Y-1397000D01*
X-2635000Y-1397000D01*
X-2488000Y-1250000D01*
X-3750000Y-2250000D02*
X-3750000Y+317500D01*
X-3686500Y+381000D01*
X-3103000Y+381000D01*
X-2996000Y+274000D01*
X-3242000Y-2250000D02*
X-3492500Y-1999500D01*
X-3492500Y+31500D01*
X-3250000Y+274000D01*
X-2734000Y-2250000D02*
X-2734000Y-1968500D01*
X-3250000Y-1452500D01*
X-3250000Y-1250000D01*
X-2226000Y-2250000D02*
X-2226000Y-1651000D01*
X-2289500Y-1587500D01*
X-2921000Y-1587500D01*
X-2996000Y-1512500D01*
X-2996000Y-1250000D01*
X-1718000Y-2250000D02*
X-1718000Y-1468500D01*
X-1726000Y-1460500D01*
X-1726000Y-1250000D01*
X-1210000Y-2250000D02*
X-1472000Y-1988000D01*
X-1472000Y-1250000D01*
X-702000Y-2250000D02*
X-702000Y-1766000D01*
X-1218000Y-1250000D01*
X-194000Y-2250000D02*
X-508000Y-1936000D01*
X-508000Y-1706000D01*
X-964000Y-1250000D01*
X+3750000Y+266000D02*
X+3750000Y+444500D01*
X+3810000Y+504500D01*
X+3810000Y+762000D01*
X+3750000Y+266000D02*
X+3750000Y+250000D01*
X+1750000Y+250000D01*
X+1576000Y+274000D01*
X-1206500Y+0D02*
X-1587500Y-381000D01*
X-1587500Y-1778000D01*
X-1524000Y-1841500D01*
X-1524000Y-2603500D01*
X-1587500Y-2667000D01*
X-4762500Y-2667000D01*
X-4826000Y-2603500D01*
X-4826000Y-326000D01*
X-4500000Y+0D01*
X+2758000Y-500000D02*
X+2476304Y-781696D01*
X-210196Y-781696D01*
X-317500Y-889000D01*
X-317500Y-1333500D01*
X-381000Y-1397000D01*
X-563000Y-1397000D01*
X-710000Y-1250000D01*
X+3750000Y+1250000D02*
X+3579500Y+1079500D01*
X+3313500Y+1079500D01*
X+3250000Y+1016000D01*
X+3250000Y+750000D01*
X+3750000Y+1250000D02*
X+3937000Y+1250000D01*
X+4250000Y+937000D01*
X+4250000Y-576000D01*
X+3937000Y-889000D01*
X+3147000Y-889000D01*
X+2758000Y-500000D01*
X-1218000Y+274000D02*
X-2016000Y+984000D01*
X-2349500Y+984000D01*
X-2349500Y+1456500D01*
X-2413000Y+1520000D01*
X-3004000Y+1520000D01*
X-1218000Y+274000D02*
X-1250000Y+250000D01*
X-1250000Y+0D01*
X-1206500Y+0D01*
X-710000Y-1250000D02*
X-710000Y-500000D01*
X-1206500Y+0D02*
X-1000000Y+0D01*
X-710000Y-163000D01*
X-710000Y-500000D01*
X-1218000Y+274000D02*
X-920500Y+571500D01*
X-889000Y+571500D01*
X-889000Y+762000D01*
X+2250000Y-500000D02*
X+2559500Y-190500D01*
X+3190500Y-190500D01*
X+3750000Y-750000D01*
X-381000Y-571500D02*
X-456000Y-646500D01*
X-456000Y-1250000D01*
X+2250000Y-500000D02*
X-309500Y-500000D01*
X-381000Y-571500D01*
X-456000Y-436500D02*
X-381000Y-511500D01*
X-381000Y-571500D01*
X-456000Y-436500D02*
X-392500Y-373000D01*
X-392500Y-254000D01*
X-571500Y-75000D01*
X-571500Y+500000D01*
X-750000Y+500000D01*
X-964000Y+274000D01*
D10*
X-3004000Y+1266000D03*
X-3004000Y+1520000D03*
X+3496000Y+1250000D03*
X+3750000Y+1250000D03*
D11*
X+2250000Y-500000D03*
X+2758000Y-500000D03*
D12*
X+1576000Y+274000D03*
D13*
X+1322000Y+274000D03*
X+1068000Y+274000D03*
X+814000Y+274000D03*
X+560000Y+274000D03*
X+306000Y+274000D03*
X+52000Y+274000D03*
X-202000Y+274000D03*
X-456000Y+274000D03*
X-710000Y+274000D03*
X-964000Y+274000D03*
X-1218000Y+274000D03*
X-1472000Y+274000D03*
X-1726000Y+274000D03*
X-1980000Y+274000D03*
X-2234000Y+274000D03*
X-2488000Y+274000D03*
X-2742000Y+274000D03*
X-2996000Y+274000D03*
X-3250000Y+274000D03*
X-3250000Y-1250000D03*
X-2996000Y-1250000D03*
X-2742000Y-1250000D03*
X-2488000Y-1250000D03*
X-2234000Y-1250000D03*
X-1980000Y-1250000D03*
X-1726000Y-1250000D03*
X-1472000Y-1250000D03*
X-1218000Y-1250000D03*
X-964000Y-1250000D03*
X-710000Y-1250000D03*
X-456000Y-1250000D03*
X-202000Y-1250000D03*
X+52000Y-1250000D03*
X+306000Y-1250000D03*
X+560000Y-1250000D03*
X+814000Y-1250000D03*
X+1068000Y-1250000D03*
X+1322000Y-1250000D03*
X+1576000Y-1250000D03*
D10*
X+3750000Y-750000D03*
X+3750000Y+266000D03*
D14*
X+500000Y+1000000D03*
X-8000Y+1000000D03*
X-2500000Y+750000D03*
D11*
X+4000000Y-2250000D03*
X+3492000Y-2250000D03*
X+2984000Y-2250000D03*
X+2476000Y-2250000D03*
X+1968000Y-2250000D03*
X+1460000Y-2250000D03*
X+952000Y-2250000D03*
X+444000Y-2250000D03*
X+1250000Y+1000000D03*
X+1758000Y+1000000D03*
X+2266000Y+1000000D03*
X+2774000Y+1000000D03*
X-3750000Y-2250000D03*
X-3242000Y-2250000D03*
X-2734000Y-2250000D03*
X-2226000Y-2250000D03*
X-1718000Y-2250000D03*
X-1210000Y-2250000D03*
X-702000Y-2250000D03*
X-194000Y-2250000D03*
D14*
X-1250000Y+750000D03*
X-889000Y+762000D03*
D11*
X-4500000Y+0D03*
X-4500000Y-508000D03*
X-4500000Y-1016000D03*
D14*
X+3810000Y+762000D03*
X+3250000Y+750000D03*
X-2000000Y+750000D03*
M02*
