G04 PROTEUS GERBER X2 FILE*
%TF.GenerationSoftware,Labcenter,Proteus,8.6-SP2-Build23525*%
%TF.CreationDate,2018-03-22T21:58:14+00:00*%
%TF.FileFunction,Legend,Top*%
%TF.FilePolarity,Positive*%
%TF.Part,Single*%
%FSLAX45Y45*%
%MOMM*%
G01*
%TA.AperFunction,Material*%
%ADD16C,0.203200*%
%TA.AperFunction,NonMaterial*%
%ADD17C,0.203200*%
%TD.AperFunction*%
D16*
X-5250000Y-3000000D02*
X+4500000Y-3000000D01*
X+4500000Y+1750000D01*
X-5250000Y+1750000D01*
X-5250000Y-3000000D01*
X-3004000Y+1139000D02*
X-3029876Y+1144080D01*
X-3053848Y+1158685D01*
X-3075438Y+1181862D01*
X-3094170Y+1212660D01*
X-3109569Y+1250125D01*
X-3121158Y+1293305D01*
X-3128460Y+1341248D01*
X-3131000Y+1393000D01*
X-3004000Y+1647000D02*
X-3029876Y+1641920D01*
X-3053848Y+1627315D01*
X-3075438Y+1604138D01*
X-3094170Y+1573340D01*
X-3109569Y+1535875D01*
X-3121158Y+1492695D01*
X-3128460Y+1444752D01*
X-3131000Y+1393000D01*
X-3004000Y+1139000D02*
X-2978124Y+1144080D01*
X-2954152Y+1158685D01*
X-2932562Y+1181862D01*
X-2913830Y+1212660D01*
X-2898431Y+1250125D01*
X-2886842Y+1293305D01*
X-2879540Y+1341248D01*
X-2877000Y+1393000D01*
X-3004000Y+1647000D02*
X-2978124Y+1641920D01*
X-2954152Y+1627315D01*
X-2932562Y+1604138D01*
X-2913830Y+1573340D01*
X-2898431Y+1535875D01*
X-2886842Y+1492695D01*
X-2879540Y+1444752D01*
X-2877000Y+1393000D01*
X-3186880Y+1361250D02*
X-3171640Y+1345375D01*
X-3171640Y+1297750D01*
X-3202120Y+1266000D01*
X-3232600Y+1266000D01*
X-3263080Y+1297750D01*
X-3263080Y+1345375D01*
X-3247840Y+1361250D01*
X-3232600Y+1424750D02*
X-3263080Y+1456500D01*
X-3171640Y+1456500D01*
X+3369000Y+1250000D02*
X+3374080Y+1275876D01*
X+3388685Y+1299848D01*
X+3411862Y+1321438D01*
X+3442660Y+1340170D01*
X+3480125Y+1355569D01*
X+3523305Y+1367158D01*
X+3571248Y+1374460D01*
X+3623000Y+1377000D01*
X+3877000Y+1250000D02*
X+3871920Y+1275876D01*
X+3857315Y+1299848D01*
X+3834138Y+1321438D01*
X+3803340Y+1340170D01*
X+3765875Y+1355569D01*
X+3722695Y+1367158D01*
X+3674752Y+1374460D01*
X+3623000Y+1377000D01*
X+3369000Y+1250000D02*
X+3374080Y+1224124D01*
X+3388685Y+1200152D01*
X+3411862Y+1178562D01*
X+3442660Y+1159830D01*
X+3480125Y+1144431D01*
X+3523305Y+1132842D01*
X+3571248Y+1125540D01*
X+3623000Y+1123000D01*
X+3877000Y+1250000D02*
X+3871920Y+1224124D01*
X+3857315Y+1200152D01*
X+3834138Y+1178562D01*
X+3803340Y+1159830D01*
X+3765875Y+1144431D01*
X+3722695Y+1132842D01*
X+3674752Y+1125540D01*
X+3623000Y+1123000D01*
X+3591250Y+1432880D02*
X+3575375Y+1417640D01*
X+3527750Y+1417640D01*
X+3496000Y+1448120D01*
X+3496000Y+1478600D01*
X+3527750Y+1509080D01*
X+3575375Y+1509080D01*
X+3591250Y+1493840D01*
X+3638875Y+1493840D02*
X+3654750Y+1509080D01*
X+3702375Y+1509080D01*
X+3718250Y+1493840D01*
X+3718250Y+1478600D01*
X+3702375Y+1463360D01*
X+3718250Y+1448120D01*
X+3718250Y+1432880D01*
X+3702375Y+1417640D01*
X+3654750Y+1417640D01*
X+3638875Y+1432880D01*
X+3670625Y+1463360D02*
X+3702375Y+1463360D01*
X+1996000Y+8000D02*
X+1996000Y-1008000D01*
X+3012000Y+8000D02*
X+3012000Y-1008000D01*
X+1996000Y-1008000D02*
X+3012000Y-1008000D01*
X+1996000Y+8000D02*
X+3012000Y+8000D01*
X+2377000Y+79120D02*
X+2377000Y+63880D01*
X+2392875Y+48640D01*
X+2456375Y+48640D01*
X+2472250Y+63880D01*
X+2472250Y+140080D01*
X+2519875Y+124840D02*
X+2535750Y+140080D01*
X+2583375Y+140080D01*
X+2599250Y+124840D01*
X+2599250Y+109600D01*
X+2583375Y+94360D01*
X+2535750Y+94360D01*
X+2519875Y+79120D01*
X+2519875Y+48640D01*
X+2599250Y+48640D01*
X+1449000Y-488000D02*
X+1454080Y-539752D01*
X+1468685Y-587695D01*
X+1491862Y-630875D01*
X+1522660Y-668340D01*
X+1560125Y-699138D01*
X+1603305Y-722315D01*
X+1651248Y-736920D01*
X+1703000Y-742000D01*
X+1449000Y-488000D02*
X+1454080Y-435518D01*
X+1468685Y-387233D01*
X+1491862Y-344009D01*
X+1522660Y-306708D01*
X+1560125Y-276193D01*
X+1603305Y-253328D01*
X+1651248Y-238976D01*
X+1703000Y-234000D01*
X+1703000Y-742000D02*
X+1703000Y-1123000D01*
X-3377000Y-1123000D02*
X-3377000Y+147000D01*
X+1703000Y+147000D02*
X+1703000Y-234000D01*
X+1703000Y-1123000D02*
X-3377000Y-1123000D01*
X+1703000Y+147000D02*
X-3377000Y+147000D01*
X+1743640Y-615000D02*
X+1819840Y-615000D01*
X+1835080Y-599125D01*
X+1835080Y-535625D01*
X+1819840Y-519750D01*
X+1743640Y-519750D01*
X+1774120Y-456250D02*
X+1743640Y-424500D01*
X+1835080Y-424500D01*
X+3750000Y-623000D02*
X+3750000Y-496000D01*
X+3686500Y-496000D02*
X+3813500Y-496000D01*
X+3813500Y+12000D01*
X+3686500Y+12000D01*
X+3686500Y-496000D01*
X+3750000Y+12000D02*
X+3750000Y+139000D01*
X+3645860Y-369000D02*
X+3554420Y-369000D01*
X+3554420Y-289625D01*
X+3569660Y-273750D01*
X+3584900Y-273750D01*
X+3600140Y-289625D01*
X+3600140Y-369000D01*
X+3600140Y-289625D02*
X+3615380Y-273750D01*
X+3645860Y-273750D01*
X+3569660Y-226125D02*
X+3554420Y-210250D01*
X+3554420Y-162625D01*
X+3569660Y-146750D01*
X+3584900Y-146750D01*
X+3600140Y-162625D01*
X+3600140Y-210250D01*
X+3615380Y-226125D01*
X+3645860Y-226125D01*
X+3645860Y-146750D01*
X+627000Y+746000D02*
X-135000Y+746000D01*
X-262000Y+873000D01*
X-262000Y+1127000D01*
X-135000Y+1254000D01*
X+627000Y+1254000D01*
X+754000Y+1127000D01*
X+754000Y+873000D01*
X+627000Y+746000D01*
X+119000Y+705360D02*
X+214250Y+613920D01*
X+119000Y+613920D02*
X+214250Y+705360D01*
X+277750Y+674880D02*
X+309500Y+705360D01*
X+309500Y+613920D01*
X-2373000Y+750000D02*
X-2373427Y+760409D01*
X-2376899Y+781228D01*
X-2384155Y+802047D01*
X-2395983Y+822866D01*
X-2414080Y+843524D01*
X-2434899Y+859045D01*
X-2455718Y+869030D01*
X-2476537Y+874814D01*
X-2497356Y+876972D01*
X-2500000Y+877000D01*
X-2627000Y+750000D02*
X-2626573Y+760409D01*
X-2623101Y+781228D01*
X-2615845Y+802047D01*
X-2604017Y+822866D01*
X-2585920Y+843524D01*
X-2565101Y+859045D01*
X-2544282Y+869030D01*
X-2523463Y+874814D01*
X-2502644Y+876972D01*
X-2500000Y+877000D01*
X-2627000Y+750000D02*
X-2626573Y+739591D01*
X-2623101Y+718772D01*
X-2615845Y+697953D01*
X-2604017Y+677134D01*
X-2585920Y+656476D01*
X-2565101Y+640955D01*
X-2544282Y+630970D01*
X-2523463Y+625186D01*
X-2502644Y+623028D01*
X-2500000Y+623000D01*
X-2373000Y+750000D02*
X-2373427Y+739591D01*
X-2376899Y+718772D01*
X-2384155Y+697953D01*
X-2395983Y+677134D01*
X-2414080Y+656476D01*
X-2434899Y+640955D01*
X-2455718Y+630970D01*
X-2476537Y+625186D01*
X-2497356Y+623028D01*
X-2500000Y+623000D01*
X-2436500Y+750000D02*
X-2436717Y+755247D01*
X-2438482Y+765742D01*
X-2442174Y+776237D01*
X-2448202Y+786732D01*
X-2457424Y+797112D01*
X-2467919Y+804800D01*
X-2478414Y+809718D01*
X-2488909Y+812524D01*
X-2499404Y+813497D01*
X-2500000Y+813500D01*
X-2563500Y+750000D02*
X-2563283Y+755247D01*
X-2561518Y+765742D01*
X-2557826Y+776237D01*
X-2551798Y+786732D01*
X-2542576Y+797112D01*
X-2532081Y+804800D01*
X-2521586Y+809718D01*
X-2511091Y+812524D01*
X-2500596Y+813497D01*
X-2500000Y+813500D01*
X-2563500Y+750000D02*
X-2563283Y+744753D01*
X-2561518Y+734258D01*
X-2557826Y+723763D01*
X-2551798Y+713268D01*
X-2542576Y+702888D01*
X-2532081Y+695200D01*
X-2521586Y+690282D01*
X-2511091Y+687476D01*
X-2500596Y+686503D01*
X-2500000Y+686500D01*
X-2436500Y+750000D02*
X-2436717Y+744753D01*
X-2438482Y+734258D01*
X-2442174Y+723763D01*
X-2448202Y+713268D01*
X-2457424Y+702888D01*
X-2467919Y+695200D01*
X-2478414Y+690282D01*
X-2488909Y+687476D01*
X-2499404Y+686503D01*
X-2500000Y+686500D01*
X-2627000Y+948120D02*
X-2627000Y+932880D01*
X-2611125Y+917640D01*
X-2547625Y+917640D01*
X-2531750Y+932880D01*
X-2531750Y+1009080D01*
X-2484125Y+993840D02*
X-2468250Y+1009080D01*
X-2420625Y+1009080D01*
X-2404750Y+993840D01*
X-2404750Y+978600D01*
X-2420625Y+963360D01*
X-2404750Y+948120D01*
X-2404750Y+932880D01*
X-2420625Y+917640D01*
X-2468250Y+917640D01*
X-2484125Y+932880D01*
X-2452375Y+963360D02*
X-2420625Y+963360D01*
X+4254000Y-2758000D02*
X+4254000Y-1742000D01*
X+190000Y-2758000D02*
X+190000Y-1742000D01*
X+4254000Y-1742000D01*
X+4254000Y-2758000D02*
X+190000Y-2758000D01*
X+2095000Y-2859600D02*
X+2095000Y-2874840D01*
X+2110875Y-2890080D01*
X+2174375Y-2890080D01*
X+2190250Y-2874840D01*
X+2190250Y-2798640D01*
X+2317250Y-2859600D02*
X+2222000Y-2859600D01*
X+2285500Y-2798640D01*
X+2285500Y-2890080D01*
X+996000Y+1508000D02*
X+996000Y+492000D01*
X+3028000Y+1508000D02*
X+3028000Y+492000D01*
X+996000Y+492000D01*
X+996000Y+1508000D02*
X+3028000Y+1508000D01*
X+1885000Y+1579120D02*
X+1885000Y+1563880D01*
X+1900875Y+1548640D01*
X+1964375Y+1548640D01*
X+1980250Y+1563880D01*
X+1980250Y+1640080D01*
X+2107250Y+1640080D02*
X+2027875Y+1640080D01*
X+2027875Y+1609600D01*
X+2091375Y+1609600D01*
X+2107250Y+1594360D01*
X+2107250Y+1563880D01*
X+2091375Y+1548640D01*
X+2043750Y+1548640D01*
X+2027875Y+1563880D01*
X-4004000Y-1742000D02*
X-4004000Y-2758000D01*
X+60000Y-1742000D02*
X+60000Y-2758000D01*
X-4004000Y-2758000D01*
X-4004000Y-1742000D02*
X+60000Y-1742000D01*
X-2099000Y-1670880D02*
X-2099000Y-1686120D01*
X-2083125Y-1701360D01*
X-2019625Y-1701360D01*
X-2003750Y-1686120D01*
X-2003750Y-1609920D01*
X-1876750Y-1625160D02*
X-1892625Y-1609920D01*
X-1940250Y-1609920D01*
X-1956125Y-1625160D01*
X-1956125Y-1686120D01*
X-1940250Y-1701360D01*
X-1892625Y-1701360D01*
X-1876750Y-1686120D01*
X-1876750Y-1670880D01*
X-1892625Y-1655640D01*
X-1956125Y-1655640D01*
X-1123000Y+750000D02*
X-1123427Y+760409D01*
X-1126899Y+781228D01*
X-1134155Y+802047D01*
X-1145983Y+822866D01*
X-1164080Y+843524D01*
X-1184899Y+859045D01*
X-1205718Y+869030D01*
X-1226537Y+874814D01*
X-1247356Y+876972D01*
X-1250000Y+877000D01*
X-1377000Y+750000D02*
X-1376573Y+760409D01*
X-1373101Y+781228D01*
X-1365845Y+802047D01*
X-1354017Y+822866D01*
X-1335920Y+843524D01*
X-1315101Y+859045D01*
X-1294282Y+869030D01*
X-1273463Y+874814D01*
X-1252644Y+876972D01*
X-1250000Y+877000D01*
X-1377000Y+750000D02*
X-1376573Y+739591D01*
X-1373101Y+718772D01*
X-1365845Y+697953D01*
X-1354017Y+677134D01*
X-1335920Y+656476D01*
X-1315101Y+640955D01*
X-1294282Y+630970D01*
X-1273463Y+625186D01*
X-1252644Y+623028D01*
X-1250000Y+623000D01*
X-1123000Y+750000D02*
X-1123427Y+739591D01*
X-1126899Y+718772D01*
X-1134155Y+697953D01*
X-1145983Y+677134D01*
X-1164080Y+656476D01*
X-1184899Y+640955D01*
X-1205718Y+630970D01*
X-1226537Y+625186D01*
X-1247356Y+623028D01*
X-1250000Y+623000D01*
X-1186500Y+750000D02*
X-1186717Y+755247D01*
X-1188482Y+765742D01*
X-1192174Y+776237D01*
X-1198202Y+786732D01*
X-1207424Y+797112D01*
X-1217919Y+804800D01*
X-1228414Y+809718D01*
X-1238909Y+812524D01*
X-1249404Y+813497D01*
X-1250000Y+813500D01*
X-1313500Y+750000D02*
X-1313283Y+755247D01*
X-1311518Y+765742D01*
X-1307826Y+776237D01*
X-1301798Y+786732D01*
X-1292576Y+797112D01*
X-1282081Y+804800D01*
X-1271586Y+809718D01*
X-1261091Y+812524D01*
X-1250596Y+813497D01*
X-1250000Y+813500D01*
X-1313500Y+750000D02*
X-1313283Y+744753D01*
X-1311518Y+734258D01*
X-1307826Y+723763D01*
X-1301798Y+713268D01*
X-1292576Y+702888D01*
X-1282081Y+695200D01*
X-1271586Y+690282D01*
X-1261091Y+687476D01*
X-1250596Y+686503D01*
X-1250000Y+686500D01*
X-1186500Y+750000D02*
X-1186717Y+744753D01*
X-1188482Y+734258D01*
X-1192174Y+723763D01*
X-1198202Y+713268D01*
X-1207424Y+702888D01*
X-1217919Y+695200D01*
X-1228414Y+690282D01*
X-1238909Y+687476D01*
X-1249404Y+686503D01*
X-1250000Y+686500D01*
X-1377000Y+948120D02*
X-1377000Y+932880D01*
X-1361125Y+917640D01*
X-1297625Y+917640D01*
X-1281750Y+932880D01*
X-1281750Y+1009080D01*
X-1234125Y+1009080D02*
X-1154750Y+1009080D01*
X-1154750Y+993840D01*
X-1234125Y+917640D01*
X-762000Y+762000D02*
X-762427Y+772409D01*
X-765899Y+793228D01*
X-773155Y+814047D01*
X-784983Y+834866D01*
X-803080Y+855524D01*
X-823899Y+871045D01*
X-844718Y+881030D01*
X-865537Y+886814D01*
X-886356Y+888972D01*
X-889000Y+889000D01*
X-1016000Y+762000D02*
X-1015573Y+772409D01*
X-1012101Y+793228D01*
X-1004845Y+814047D01*
X-993017Y+834866D01*
X-974920Y+855524D01*
X-954101Y+871045D01*
X-933282Y+881030D01*
X-912463Y+886814D01*
X-891644Y+888972D01*
X-889000Y+889000D01*
X-1016000Y+762000D02*
X-1015573Y+751591D01*
X-1012101Y+730772D01*
X-1004845Y+709953D01*
X-993017Y+689134D01*
X-974920Y+668476D01*
X-954101Y+652955D01*
X-933282Y+642970D01*
X-912463Y+637186D01*
X-891644Y+635028D01*
X-889000Y+635000D01*
X-762000Y+762000D02*
X-762427Y+751591D01*
X-765899Y+730772D01*
X-773155Y+709953D01*
X-784983Y+689134D01*
X-803080Y+668476D01*
X-823899Y+652955D01*
X-844718Y+642970D01*
X-865537Y+637186D01*
X-886356Y+635028D01*
X-889000Y+635000D01*
X-825500Y+762000D02*
X-825717Y+767247D01*
X-827482Y+777742D01*
X-831174Y+788237D01*
X-837202Y+798732D01*
X-846424Y+809112D01*
X-856919Y+816800D01*
X-867414Y+821718D01*
X-877909Y+824524D01*
X-888404Y+825497D01*
X-889000Y+825500D01*
X-952500Y+762000D02*
X-952283Y+767247D01*
X-950518Y+777742D01*
X-946826Y+788237D01*
X-940798Y+798732D01*
X-931576Y+809112D01*
X-921081Y+816800D01*
X-910586Y+821718D01*
X-900091Y+824524D01*
X-889596Y+825497D01*
X-889000Y+825500D01*
X-952500Y+762000D02*
X-952283Y+756753D01*
X-950518Y+746258D01*
X-946826Y+735763D01*
X-940798Y+725268D01*
X-931576Y+714888D01*
X-921081Y+707200D01*
X-910586Y+702282D01*
X-900091Y+699476D01*
X-889596Y+698503D01*
X-889000Y+698500D01*
X-825500Y+762000D02*
X-825717Y+756753D01*
X-827482Y+746258D01*
X-831174Y+735763D01*
X-837202Y+725268D01*
X-846424Y+714888D01*
X-856919Y+707200D01*
X-867414Y+702282D01*
X-877909Y+699476D01*
X-888404Y+698503D01*
X-889000Y+698500D01*
X-1016000Y+960120D02*
X-1016000Y+944880D01*
X-1000125Y+929640D01*
X-936625Y+929640D01*
X-920750Y+944880D01*
X-920750Y+1021080D01*
X-857250Y+975360D02*
X-873125Y+990600D01*
X-873125Y+1005840D01*
X-857250Y+1021080D01*
X-809625Y+1021080D01*
X-793750Y+1005840D01*
X-793750Y+990600D01*
X-809625Y+975360D01*
X-857250Y+975360D01*
X-873125Y+960120D01*
X-873125Y+944880D01*
X-857250Y+929640D01*
X-809625Y+929640D01*
X-793750Y+944880D01*
X-793750Y+960120D01*
X-809625Y+975360D01*
D17*
X-5500000Y+1750000D02*
X-5500000Y-3000000D01*
X-5500000Y+1750000D02*
X-5627000Y+1623000D01*
X-5500000Y+1750000D02*
X-5373000Y+1623000D01*
X-5500000Y-3000000D02*
X-5373000Y-2873000D01*
X-5500000Y-3000000D02*
X-5627000Y-2873000D01*
X-5468250Y-625000D02*
X-5468359Y-622366D01*
X-5469249Y-617097D01*
X-5471111Y-611828D01*
X-5474154Y-606559D01*
X-5478809Y-601357D01*
X-5484078Y-597531D01*
X-5489347Y-595091D01*
X-5494616Y-593710D01*
X-5499885Y-593250D01*
X-5500000Y-593250D01*
X-5531750Y-625000D02*
X-5531641Y-622366D01*
X-5530751Y-617097D01*
X-5528889Y-611828D01*
X-5525846Y-606559D01*
X-5521191Y-601357D01*
X-5515922Y-597531D01*
X-5510653Y-595091D01*
X-5505384Y-593710D01*
X-5500115Y-593250D01*
X-5500000Y-593250D01*
X-5531750Y-625000D02*
X-5531641Y-627634D01*
X-5530751Y-632903D01*
X-5528889Y-638172D01*
X-5525846Y-643441D01*
X-5521191Y-648643D01*
X-5515922Y-652469D01*
X-5510653Y-654909D01*
X-5505384Y-656290D01*
X-5500115Y-656750D01*
X-5500000Y-656750D01*
X-5468250Y-625000D02*
X-5468359Y-627634D01*
X-5469249Y-632903D01*
X-5471111Y-638172D01*
X-5474154Y-643441D01*
X-5478809Y-648643D01*
X-5484078Y-652469D01*
X-5489347Y-654909D01*
X-5494616Y-656290D01*
X-5499885Y-656750D01*
X-5500000Y-656750D01*
X-5428880Y-339250D02*
X-5428880Y-244000D01*
X-5367920Y-307500D01*
X-5459360Y-307500D01*
X-5367920Y-386875D02*
X-5367920Y-466250D01*
X-5383160Y-466250D01*
X-5459360Y-386875D01*
X-5444120Y-545625D02*
X-5444120Y-561500D01*
X-5459360Y-561500D01*
X-5459360Y-545625D01*
X-5444120Y-545625D01*
X-5367920Y-720250D02*
X-5367920Y-640875D01*
X-5398400Y-640875D01*
X-5398400Y-704375D01*
X-5413640Y-720250D01*
X-5444120Y-720250D01*
X-5459360Y-704375D01*
X-5459360Y-656750D01*
X-5444120Y-640875D01*
X-5459360Y-752000D02*
X-5398400Y-752000D01*
X-5413640Y-752000D02*
X-5398400Y-767875D01*
X-5428880Y-799625D01*
X-5398400Y-831375D01*
X-5413640Y-847250D01*
X-5459360Y-847250D01*
X-5459360Y-879000D02*
X-5398400Y-879000D01*
X-5413640Y-879000D02*
X-5398400Y-894875D01*
X-5428880Y-926625D01*
X-5398400Y-958375D01*
X-5413640Y-974250D01*
X-5459360Y-974250D01*
X-5250000Y+2000000D02*
X+4500000Y+2000000D01*
X-5250000Y+2000000D02*
X-5123000Y+1873000D01*
X-5250000Y+2000000D02*
X-5123000Y+2127000D01*
X+4500000Y+2000000D02*
X+4373000Y+2127000D01*
X+4500000Y+2000000D02*
X+4373000Y+1873000D01*
X-343250Y+2000000D02*
X-343359Y+2002634D01*
X-344249Y+2007903D01*
X-346111Y+2013172D01*
X-349154Y+2018441D01*
X-353809Y+2023643D01*
X-359078Y+2027469D01*
X-364347Y+2029909D01*
X-369616Y+2031290D01*
X-374885Y+2031750D01*
X-375000Y+2031750D01*
X-406750Y+2000000D02*
X-406641Y+2002634D01*
X-405751Y+2007903D01*
X-403889Y+2013172D01*
X-400846Y+2018441D01*
X-396191Y+2023643D01*
X-390922Y+2027469D01*
X-385653Y+2029909D01*
X-380384Y+2031290D01*
X-375115Y+2031750D01*
X-375000Y+2031750D01*
X-406750Y+2000000D02*
X-406641Y+1997366D01*
X-405751Y+1992097D01*
X-403889Y+1986828D01*
X-400846Y+1981559D01*
X-396191Y+1976357D01*
X-390922Y+1972531D01*
X-385653Y+1970091D01*
X-380384Y+1968710D01*
X-375115Y+1968250D01*
X-375000Y+1968250D01*
X-343250Y+2000000D02*
X-343359Y+1997366D01*
X-344249Y+1992097D01*
X-346111Y+1986828D01*
X-349154Y+1981559D01*
X-353809Y+1976357D01*
X-359078Y+1972531D01*
X-364347Y+1970091D01*
X-369616Y+1968710D01*
X-374885Y+1968250D01*
X-375000Y+1968250D01*
X-660750Y+2101600D02*
X-676625Y+2086360D01*
X-724250Y+2086360D01*
X-740125Y+2101600D01*
X-740125Y+2116840D01*
X-724250Y+2132080D01*
X-676625Y+2132080D01*
X-660750Y+2116840D01*
X-660750Y+2055880D01*
X-676625Y+2040640D01*
X-724250Y+2040640D01*
X-613125Y+2132080D02*
X-533750Y+2132080D01*
X-533750Y+2116840D01*
X-613125Y+2040640D01*
X-454375Y+2055880D02*
X-438500Y+2055880D01*
X-438500Y+2040640D01*
X-454375Y+2040640D01*
X-454375Y+2055880D01*
X-279750Y+2132080D02*
X-359125Y+2132080D01*
X-359125Y+2101600D01*
X-295625Y+2101600D01*
X-279750Y+2086360D01*
X-279750Y+2055880D01*
X-295625Y+2040640D01*
X-343250Y+2040640D01*
X-359125Y+2055880D01*
X-248000Y+2040640D02*
X-248000Y+2101600D01*
X-248000Y+2086360D02*
X-232125Y+2101600D01*
X-200375Y+2071120D01*
X-168625Y+2101600D01*
X-152750Y+2086360D01*
X-152750Y+2040640D01*
X-121000Y+2040640D02*
X-121000Y+2101600D01*
X-121000Y+2086360D02*
X-105125Y+2101600D01*
X-73375Y+2071120D01*
X-41625Y+2101600D01*
X-25750Y+2086360D01*
X-25750Y+2040640D01*
D16*
X-3992000Y+254000D02*
X-5008000Y+254000D01*
X-3992000Y-1270000D02*
X-5008000Y-1270000D01*
X-5008000Y+254000D02*
X-5008000Y-1270000D01*
X-3992000Y-1270000D02*
X-3992000Y+254000D01*
X-3890400Y-698500D02*
X-3875160Y-698500D01*
X-3859920Y-682625D01*
X-3859920Y-619125D01*
X-3875160Y-603250D01*
X-3951360Y-603250D01*
X-3920880Y-539750D02*
X-3951360Y-508000D01*
X-3859920Y-508000D01*
X-3920880Y-412750D02*
X-3951360Y-381000D01*
X-3859920Y-381000D01*
X+3937000Y+762000D02*
X+3936573Y+772409D01*
X+3933101Y+793228D01*
X+3925845Y+814047D01*
X+3914017Y+834866D01*
X+3895920Y+855524D01*
X+3875101Y+871045D01*
X+3854282Y+881030D01*
X+3833463Y+886814D01*
X+3812644Y+888972D01*
X+3810000Y+889000D01*
X+3683000Y+762000D02*
X+3683427Y+772409D01*
X+3686899Y+793228D01*
X+3694155Y+814047D01*
X+3705983Y+834866D01*
X+3724080Y+855524D01*
X+3744899Y+871045D01*
X+3765718Y+881030D01*
X+3786537Y+886814D01*
X+3807356Y+888972D01*
X+3810000Y+889000D01*
X+3683000Y+762000D02*
X+3683427Y+751591D01*
X+3686899Y+730772D01*
X+3694155Y+709953D01*
X+3705983Y+689134D01*
X+3724080Y+668476D01*
X+3744899Y+652955D01*
X+3765718Y+642970D01*
X+3786537Y+637186D01*
X+3807356Y+635028D01*
X+3810000Y+635000D01*
X+3937000Y+762000D02*
X+3936573Y+751591D01*
X+3933101Y+730772D01*
X+3925845Y+709953D01*
X+3914017Y+689134D01*
X+3895920Y+668476D01*
X+3875101Y+652955D01*
X+3854282Y+642970D01*
X+3833463Y+637186D01*
X+3812644Y+635028D01*
X+3810000Y+635000D01*
X+3873500Y+762000D02*
X+3873283Y+767247D01*
X+3871518Y+777742D01*
X+3867826Y+788237D01*
X+3861798Y+798732D01*
X+3852576Y+809112D01*
X+3842081Y+816800D01*
X+3831586Y+821718D01*
X+3821091Y+824524D01*
X+3810596Y+825497D01*
X+3810000Y+825500D01*
X+3746500Y+762000D02*
X+3746717Y+767247D01*
X+3748482Y+777742D01*
X+3752174Y+788237D01*
X+3758202Y+798732D01*
X+3767424Y+809112D01*
X+3777919Y+816800D01*
X+3788414Y+821718D01*
X+3798909Y+824524D01*
X+3809404Y+825497D01*
X+3810000Y+825500D01*
X+3746500Y+762000D02*
X+3746717Y+756753D01*
X+3748482Y+746258D01*
X+3752174Y+735763D01*
X+3758202Y+725268D01*
X+3767424Y+714888D01*
X+3777919Y+707200D01*
X+3788414Y+702282D01*
X+3798909Y+699476D01*
X+3809404Y+698503D01*
X+3810000Y+698500D01*
X+3873500Y+762000D02*
X+3873283Y+756753D01*
X+3871518Y+746258D01*
X+3867826Y+735763D01*
X+3861798Y+725268D01*
X+3852576Y+714888D01*
X+3842081Y+707200D01*
X+3831586Y+702282D01*
X+3821091Y+699476D01*
X+3810596Y+698503D01*
X+3810000Y+698500D01*
X+3683000Y+960120D02*
X+3683000Y+944880D01*
X+3698875Y+929640D01*
X+3762375Y+929640D01*
X+3778250Y+944880D01*
X+3778250Y+1021080D01*
X+3841750Y+990600D02*
X+3873500Y+1021080D01*
X+3873500Y+929640D01*
X+3377000Y+750000D02*
X+3376573Y+760409D01*
X+3373101Y+781228D01*
X+3365845Y+802047D01*
X+3354017Y+822866D01*
X+3335920Y+843524D01*
X+3315101Y+859045D01*
X+3294282Y+869030D01*
X+3273463Y+874814D01*
X+3252644Y+876972D01*
X+3250000Y+877000D01*
X+3123000Y+750000D02*
X+3123427Y+760409D01*
X+3126899Y+781228D01*
X+3134155Y+802047D01*
X+3145983Y+822866D01*
X+3164080Y+843524D01*
X+3184899Y+859045D01*
X+3205718Y+869030D01*
X+3226537Y+874814D01*
X+3247356Y+876972D01*
X+3250000Y+877000D01*
X+3123000Y+750000D02*
X+3123427Y+739591D01*
X+3126899Y+718772D01*
X+3134155Y+697953D01*
X+3145983Y+677134D01*
X+3164080Y+656476D01*
X+3184899Y+640955D01*
X+3205718Y+630970D01*
X+3226537Y+625186D01*
X+3247356Y+623028D01*
X+3250000Y+623000D01*
X+3377000Y+750000D02*
X+3376573Y+739591D01*
X+3373101Y+718772D01*
X+3365845Y+697953D01*
X+3354017Y+677134D01*
X+3335920Y+656476D01*
X+3315101Y+640955D01*
X+3294282Y+630970D01*
X+3273463Y+625186D01*
X+3252644Y+623028D01*
X+3250000Y+623000D01*
X+3313500Y+750000D02*
X+3313283Y+755247D01*
X+3311518Y+765742D01*
X+3307826Y+776237D01*
X+3301798Y+786732D01*
X+3292576Y+797112D01*
X+3282081Y+804800D01*
X+3271586Y+809718D01*
X+3261091Y+812524D01*
X+3250596Y+813497D01*
X+3250000Y+813500D01*
X+3186500Y+750000D02*
X+3186717Y+755247D01*
X+3188482Y+765742D01*
X+3192174Y+776237D01*
X+3198202Y+786732D01*
X+3207424Y+797112D01*
X+3217919Y+804800D01*
X+3228414Y+809718D01*
X+3238909Y+812524D01*
X+3249404Y+813497D01*
X+3250000Y+813500D01*
X+3186500Y+750000D02*
X+3186717Y+744753D01*
X+3188482Y+734258D01*
X+3192174Y+723763D01*
X+3198202Y+713268D01*
X+3207424Y+702888D01*
X+3217919Y+695200D01*
X+3228414Y+690282D01*
X+3238909Y+687476D01*
X+3249404Y+686503D01*
X+3250000Y+686500D01*
X+3313500Y+750000D02*
X+3313283Y+744753D01*
X+3311518Y+734258D01*
X+3307826Y+723763D01*
X+3301798Y+713268D01*
X+3292576Y+702888D01*
X+3282081Y+695200D01*
X+3271586Y+690282D01*
X+3261091Y+687476D01*
X+3250596Y+686503D01*
X+3250000Y+686500D01*
X+3123000Y+948120D02*
X+3123000Y+932880D01*
X+3138875Y+917640D01*
X+3202375Y+917640D01*
X+3218250Y+932880D01*
X+3218250Y+1009080D01*
X+3345250Y+978600D02*
X+3329375Y+963360D01*
X+3281750Y+963360D01*
X+3265875Y+978600D01*
X+3265875Y+993840D01*
X+3281750Y+1009080D01*
X+3329375Y+1009080D01*
X+3345250Y+993840D01*
X+3345250Y+932880D01*
X+3329375Y+917640D01*
X+3281750Y+917640D01*
D17*
X+3230000Y+754000D02*
X+3857000Y+754000D01*
X+3230000Y+754000D02*
X+3357000Y+627000D01*
X+3230000Y+754000D02*
X+3357000Y+881000D01*
X+3857000Y+754000D02*
X+3730000Y+881000D01*
X+3857000Y+754000D02*
X+3730000Y+627000D01*
X+3575250Y+754000D02*
X+3575141Y+756634D01*
X+3574251Y+761903D01*
X+3572389Y+767172D01*
X+3569346Y+772441D01*
X+3564691Y+777643D01*
X+3559422Y+781469D01*
X+3554153Y+783909D01*
X+3548884Y+785290D01*
X+3543615Y+785750D01*
X+3543500Y+785750D01*
X+3511750Y+754000D02*
X+3511859Y+756634D01*
X+3512749Y+761903D01*
X+3514611Y+767172D01*
X+3517654Y+772441D01*
X+3522309Y+777643D01*
X+3527578Y+781469D01*
X+3532847Y+783909D01*
X+3538116Y+785290D01*
X+3543385Y+785750D01*
X+3543500Y+785750D01*
X+3511750Y+754000D02*
X+3511859Y+751366D01*
X+3512749Y+746097D01*
X+3514611Y+740828D01*
X+3517654Y+735559D01*
X+3522309Y+730357D01*
X+3527578Y+726531D01*
X+3532847Y+724091D01*
X+3538116Y+722710D01*
X+3543385Y+722250D01*
X+3543500Y+722250D01*
X+3575250Y+754000D02*
X+3575141Y+751366D01*
X+3574251Y+746097D01*
X+3572389Y+740828D01*
X+3569346Y+735559D01*
X+3564691Y+730357D01*
X+3559422Y+726531D01*
X+3554153Y+724091D01*
X+3548884Y+722710D01*
X+3543615Y+722250D01*
X+3543500Y+722250D01*
X+3372050Y+870840D02*
X+3362525Y+886080D01*
X+3333950Y+886080D01*
X+3324425Y+870840D01*
X+3324425Y+809880D01*
X+3333950Y+794640D01*
X+3362525Y+794640D01*
X+3372050Y+809880D01*
X+3372050Y+825120D01*
X+3362525Y+840360D01*
X+3324425Y+840360D01*
X+3419675Y+809880D02*
X+3429200Y+809880D01*
X+3429200Y+794640D01*
X+3419675Y+794640D01*
X+3419675Y+809880D01*
X+3476825Y+870840D02*
X+3486350Y+886080D01*
X+3514925Y+886080D01*
X+3524450Y+870840D01*
X+3524450Y+855600D01*
X+3514925Y+840360D01*
X+3486350Y+840360D01*
X+3476825Y+825120D01*
X+3476825Y+794640D01*
X+3524450Y+794640D01*
X+3553025Y+886080D02*
X+3600650Y+886080D01*
X+3600650Y+870840D01*
X+3553025Y+794640D01*
X+3619700Y+794640D02*
X+3619700Y+855600D01*
X+3619700Y+840360D02*
X+3629225Y+855600D01*
X+3648275Y+825120D01*
X+3667325Y+855600D01*
X+3676850Y+840360D01*
X+3676850Y+794640D01*
X+3695900Y+794640D02*
X+3695900Y+855600D01*
X+3695900Y+840360D02*
X+3705425Y+855600D01*
X+3724475Y+825120D01*
X+3743525Y+855600D01*
X+3753050Y+840360D01*
X+3753050Y+794640D01*
D16*
X-1873000Y+750000D02*
X-1873427Y+760409D01*
X-1876899Y+781228D01*
X-1884155Y+802047D01*
X-1895983Y+822866D01*
X-1914080Y+843524D01*
X-1934899Y+859045D01*
X-1955718Y+869030D01*
X-1976537Y+874814D01*
X-1997356Y+876972D01*
X-2000000Y+877000D01*
X-2127000Y+750000D02*
X-2126573Y+760409D01*
X-2123101Y+781228D01*
X-2115845Y+802047D01*
X-2104017Y+822866D01*
X-2085920Y+843524D01*
X-2065101Y+859045D01*
X-2044282Y+869030D01*
X-2023463Y+874814D01*
X-2002644Y+876972D01*
X-2000000Y+877000D01*
X-2127000Y+750000D02*
X-2126573Y+739591D01*
X-2123101Y+718772D01*
X-2115845Y+697953D01*
X-2104017Y+677134D01*
X-2085920Y+656476D01*
X-2065101Y+640955D01*
X-2044282Y+630970D01*
X-2023463Y+625186D01*
X-2002644Y+623028D01*
X-2000000Y+623000D01*
X-1873000Y+750000D02*
X-1873427Y+739591D01*
X-1876899Y+718772D01*
X-1884155Y+697953D01*
X-1895983Y+677134D01*
X-1914080Y+656476D01*
X-1934899Y+640955D01*
X-1955718Y+630970D01*
X-1976537Y+625186D01*
X-1997356Y+623028D01*
X-2000000Y+623000D01*
X-1936500Y+750000D02*
X-1936717Y+755247D01*
X-1938482Y+765742D01*
X-1942174Y+776237D01*
X-1948202Y+786732D01*
X-1957424Y+797112D01*
X-1967919Y+804800D01*
X-1978414Y+809718D01*
X-1988909Y+812524D01*
X-1999404Y+813497D01*
X-2000000Y+813500D01*
X-2063500Y+750000D02*
X-2063283Y+755247D01*
X-2061518Y+765742D01*
X-2057826Y+776237D01*
X-2051798Y+786732D01*
X-2042576Y+797112D01*
X-2032081Y+804800D01*
X-2021586Y+809718D01*
X-2011091Y+812524D01*
X-2000596Y+813497D01*
X-2000000Y+813500D01*
X-2063500Y+750000D02*
X-2063283Y+744753D01*
X-2061518Y+734258D01*
X-2057826Y+723763D01*
X-2051798Y+713268D01*
X-2042576Y+702888D01*
X-2032081Y+695200D01*
X-2021586Y+690282D01*
X-2011091Y+687476D01*
X-2000596Y+686503D01*
X-2000000Y+686500D01*
X-1936500Y+750000D02*
X-1936717Y+744753D01*
X-1938482Y+734258D01*
X-1942174Y+723763D01*
X-1948202Y+713268D01*
X-1957424Y+702888D01*
X-1967919Y+695200D01*
X-1978414Y+690282D01*
X-1988909Y+687476D01*
X-1999404Y+686503D01*
X-2000000Y+686500D01*
X-2190500Y+948120D02*
X-2190500Y+932880D01*
X-2174625Y+917640D01*
X-2111125Y+917640D01*
X-2095250Y+932880D01*
X-2095250Y+1009080D01*
X-2031750Y+978600D02*
X-2000000Y+1009080D01*
X-2000000Y+917640D01*
X-1936500Y+932880D02*
X-1936500Y+993840D01*
X-1920625Y+1009080D01*
X-1857125Y+1009080D01*
X-1841250Y+993840D01*
X-1841250Y+932880D01*
X-1857125Y+917640D01*
X-1920625Y+917640D01*
X-1936500Y+932880D01*
X-1936500Y+917640D02*
X-1841250Y+1009080D01*
M02*
