G04 PROTEUS GERBER X2 FILE*
%TF.GenerationSoftware,Labcenter,Proteus,8.6-SP2-Build23525*%
%TF.CreationDate,2018-03-22T21:58:14+00:00*%
%TF.FileFunction,AssemblyDrawing,Top*%
%TF.FilePolarity,Positive*%
%TF.Part,Single*%
%FSLAX45Y45*%
%MOMM*%
G01*
%TA.AperFunction,Material*%
%ADD16C,0.203200*%
%ADD21C,0.164590*%
%ADD22C,0.345440*%
%ADD23C,0.990600*%
%ADD24C,0.106680*%
%ADD25C,0.316990*%
%ADD26C,0.091440*%
%ADD27C,0.621790*%
%ADD28C,0.386080*%
%ADD29C,0.068580*%
%TD.AperFunction*%
D16*
X-3141160Y+1128840D02*
X-2866840Y+1128840D01*
X-2866840Y+1657160D01*
X-3141160Y+1657160D01*
X-3141160Y+1128840D01*
D21*
X-2971081Y+1360081D02*
X-2954622Y+1343622D01*
X-2954622Y+1294245D01*
X-2987540Y+1261327D01*
X-3020459Y+1261327D01*
X-3053377Y+1294245D01*
X-3053377Y+1343622D01*
X-3036918Y+1360081D01*
X-3020459Y+1425918D02*
X-3053377Y+1458836D01*
X-2954622Y+1458836D01*
D16*
X+3358840Y+1112840D02*
X+3887160Y+1112840D01*
X+3887160Y+1387160D01*
X+3358840Y+1387160D01*
X+3358840Y+1112840D01*
D21*
X+3590081Y+1217081D02*
X+3573622Y+1200622D01*
X+3524245Y+1200622D01*
X+3491327Y+1233540D01*
X+3491327Y+1266459D01*
X+3524245Y+1299377D01*
X+3573622Y+1299377D01*
X+3590081Y+1282918D01*
X+3639459Y+1282918D02*
X+3655918Y+1299377D01*
X+3705295Y+1299377D01*
X+3721754Y+1282918D01*
X+3721754Y+1266459D01*
X+3705295Y+1250000D01*
X+3721754Y+1233540D01*
X+3721754Y+1217081D01*
X+3705295Y+1200622D01*
X+3655918Y+1200622D01*
X+3639459Y+1217081D01*
X+3672377Y+1250000D02*
X+3705295Y+1250000D01*
D16*
X+1985840Y-1018160D02*
X+3022160Y-1018160D01*
X+3022160Y+18160D01*
X+1985840Y+18160D01*
X+1985840Y-1018160D01*
D22*
X+2227648Y-534544D02*
X+2227648Y-569088D01*
X+2262192Y-603632D01*
X+2400368Y-603632D01*
X+2434912Y-569088D01*
X+2434912Y-396368D01*
X+2538544Y-430912D02*
X+2573088Y-396368D01*
X+2676720Y-396368D01*
X+2711264Y-430912D01*
X+2711264Y-465456D01*
X+2676720Y-500000D01*
X+2573088Y-500000D01*
X+2538544Y-534544D01*
X+2538544Y-603632D01*
X+2711264Y-603632D01*
D16*
X-3387160Y-1313500D02*
X+1713160Y-1313500D01*
X+1713160Y+337500D01*
X-3387160Y+337500D01*
X-3387160Y-1313500D01*
D23*
X-1629480Y-190820D02*
X-1629480Y-686120D01*
X-1530420Y-785180D01*
X-1134180Y-785180D01*
X-1035120Y-686120D01*
X-1035120Y-190820D01*
X-638880Y-388940D02*
X-440760Y-190820D01*
X-440760Y-785180D01*
D16*
X+3661100Y-838900D02*
X+3838900Y-838900D01*
X+3838900Y+354900D01*
X+3661100Y+354900D01*
X+3661100Y-838900D01*
D24*
X+3782004Y-327344D02*
X+3717996Y-327344D01*
X+3717996Y-274004D01*
X+3728664Y-263336D01*
X+3739332Y-263336D01*
X+3750000Y-274004D01*
X+3750000Y-327344D01*
X+3750000Y-274004D02*
X+3760668Y-263336D01*
X+3782004Y-263336D01*
X+3728664Y-231332D02*
X+3717996Y-220664D01*
X+3717996Y-188660D01*
X+3728664Y-177992D01*
X+3739332Y-177992D01*
X+3750000Y-188660D01*
X+3750000Y-220664D01*
X+3760668Y-231332D01*
X+3782004Y-231332D01*
X+3782004Y-177992D01*
D16*
X-272160Y+735840D02*
X+764160Y+735840D01*
X+764160Y+1264160D01*
X-272160Y+1264160D01*
X-272160Y+735840D01*
D25*
X-7593Y+1095097D02*
X+182601Y+904902D01*
X-7593Y+904902D02*
X+182601Y+1095097D01*
X+309398Y+1031699D02*
X+372796Y+1095097D01*
X+372796Y+904902D01*
D16*
X-2637160Y+612840D02*
X-2362840Y+612840D01*
X-2362840Y+887160D01*
X-2637160Y+887160D01*
X-2637160Y+612840D01*
D26*
X-2573152Y+740856D02*
X-2573152Y+731712D01*
X-2564008Y+722568D01*
X-2527432Y+722568D01*
X-2518288Y+731712D01*
X-2518288Y+777432D01*
X-2490856Y+768288D02*
X-2481712Y+777432D01*
X-2454280Y+777432D01*
X-2445136Y+768288D01*
X-2445136Y+759144D01*
X-2454280Y+750000D01*
X-2445136Y+740856D01*
X-2445136Y+731712D01*
X-2454280Y+722568D01*
X-2481712Y+722568D01*
X-2490856Y+731712D01*
X-2472568Y+750000D02*
X-2454280Y+750000D01*
D16*
X+179840Y-2768160D02*
X+4264160Y-2768160D01*
X+4264160Y-1731840D01*
X+179840Y-1731840D01*
X+179840Y-2768160D01*
D27*
X+1724567Y-2312180D02*
X+1724567Y-2374359D01*
X+1786746Y-2436538D01*
X+2035462Y-2436538D01*
X+2097641Y-2374359D01*
X+2097641Y-2063463D01*
X+2595074Y-2312180D02*
X+2222000Y-2312180D01*
X+2470716Y-2063463D01*
X+2470716Y-2436538D01*
D16*
X+985840Y+481840D02*
X+3038160Y+481840D01*
X+3038160Y+1518160D01*
X+985840Y+1518160D01*
X+985840Y+481840D01*
D27*
X+1514567Y+937820D02*
X+1514567Y+875641D01*
X+1576746Y+813462D01*
X+1825462Y+813462D01*
X+1887641Y+875641D01*
X+1887641Y+1186537D01*
X+2385074Y+1186537D02*
X+2074179Y+1186537D01*
X+2074179Y+1062179D01*
X+2322895Y+1062179D01*
X+2385074Y+1000000D01*
X+2385074Y+875641D01*
X+2322895Y+813462D01*
X+2136358Y+813462D01*
X+2074179Y+875641D01*
D16*
X-4014160Y-2768160D02*
X+70160Y-2768160D01*
X+70160Y-1731840D01*
X-4014160Y-1731840D01*
X-4014160Y-2768160D01*
D27*
X-2469433Y-2312180D02*
X-2469433Y-2374359D01*
X-2407254Y-2436538D01*
X-2158538Y-2436538D01*
X-2096359Y-2374359D01*
X-2096359Y-2063463D01*
X-1598926Y-2125642D02*
X-1661105Y-2063463D01*
X-1847642Y-2063463D01*
X-1909821Y-2125642D01*
X-1909821Y-2374359D01*
X-1847642Y-2436538D01*
X-1661105Y-2436538D01*
X-1598926Y-2374359D01*
X-1598926Y-2312180D01*
X-1661105Y-2250000D01*
X-1909821Y-2250000D01*
D16*
X-1387160Y+612840D02*
X-1112840Y+612840D01*
X-1112840Y+887160D01*
X-1387160Y+887160D01*
X-1387160Y+612840D01*
D26*
X-1323152Y+740856D02*
X-1323152Y+731712D01*
X-1314008Y+722568D01*
X-1277432Y+722568D01*
X-1268288Y+731712D01*
X-1268288Y+777432D01*
X-1240856Y+777432D02*
X-1195136Y+777432D01*
X-1195136Y+768288D01*
X-1240856Y+722568D01*
D16*
X-1026160Y+624840D02*
X-751840Y+624840D01*
X-751840Y+899160D01*
X-1026160Y+899160D01*
X-1026160Y+624840D01*
D26*
X-962152Y+752856D02*
X-962152Y+743712D01*
X-953008Y+734568D01*
X-916432Y+734568D01*
X-907288Y+743712D01*
X-907288Y+789432D01*
X-870712Y+762000D02*
X-879856Y+771144D01*
X-879856Y+780288D01*
X-870712Y+789432D01*
X-843280Y+789432D01*
X-834136Y+780288D01*
X-834136Y+771144D01*
X-843280Y+762000D01*
X-870712Y+762000D01*
X-879856Y+752856D01*
X-879856Y+743712D01*
X-870712Y+734568D01*
X-843280Y+734568D01*
X-834136Y+743712D01*
X-834136Y+752856D01*
X-843280Y+762000D01*
D16*
X-5018160Y-1280160D02*
X-3981840Y-1280160D01*
X-3981840Y+264160D01*
X-5018160Y+264160D01*
X-5018160Y-1280160D01*
D28*
X-4461392Y-971296D02*
X-4422784Y-971296D01*
X-4384176Y-932688D01*
X-4384176Y-778256D01*
X-4422784Y-739648D01*
X-4615824Y-739648D01*
X-4538608Y-585216D02*
X-4615824Y-508000D01*
X-4384176Y-508000D01*
X-4538608Y-276352D02*
X-4615824Y-199136D01*
X-4384176Y-199136D01*
D16*
X+3672840Y+624840D02*
X+3947160Y+624840D01*
X+3947160Y+899160D01*
X+3672840Y+899160D01*
X+3672840Y+624840D01*
D26*
X+3736848Y+752856D02*
X+3736848Y+743712D01*
X+3745992Y+734568D01*
X+3782568Y+734568D01*
X+3791712Y+743712D01*
X+3791712Y+789432D01*
X+3828288Y+771144D02*
X+3846576Y+789432D01*
X+3846576Y+734568D01*
D16*
X+3112840Y+612840D02*
X+3387160Y+612840D01*
X+3387160Y+887160D01*
X+3112840Y+887160D01*
X+3112840Y+612840D01*
D26*
X+3176848Y+740856D02*
X+3176848Y+731712D01*
X+3185992Y+722568D01*
X+3222568Y+722568D01*
X+3231712Y+731712D01*
X+3231712Y+777432D01*
X+3304864Y+759144D02*
X+3295720Y+750000D01*
X+3268288Y+750000D01*
X+3259144Y+759144D01*
X+3259144Y+768288D01*
X+3268288Y+777432D01*
X+3295720Y+777432D01*
X+3304864Y+768288D01*
X+3304864Y+731712D01*
X+3295720Y+722568D01*
X+3268288Y+722568D01*
D16*
X-2137160Y+612840D02*
X-1862840Y+612840D01*
X-1862840Y+887160D01*
X-2137160Y+887160D01*
X-2137160Y+612840D01*
D29*
X-2082296Y+743142D02*
X-2082296Y+736284D01*
X-2075438Y+729426D01*
X-2048006Y+729426D01*
X-2041148Y+736284D01*
X-2041148Y+770574D01*
X-2013716Y+756858D02*
X-2000000Y+770574D01*
X-2000000Y+729426D01*
X-1972568Y+736284D02*
X-1972568Y+763716D01*
X-1965710Y+770574D01*
X-1938278Y+770574D01*
X-1931420Y+763716D01*
X-1931420Y+736284D01*
X-1938278Y+729426D01*
X-1965710Y+729426D01*
X-1972568Y+736284D01*
X-1972568Y+729426D02*
X-1931420Y+770574D01*
M02*
